<?xml version="1.0" standalone="no"?>
<!DOCTYPE svg PUBLIC "-//W3C//DTD SVG 20010904//EN"
 "http://www.w3.org/TR/2001/REC-SVG-20010904/DTD/svg10.dtd">
<svg version="1.0" xmlns="http://www.w3.org/2000/svg"
 width="120.000000pt" height="120.000000pt" viewBox="0 0 120.000000 120.000000"
 preserveAspectRatio="xMidYMid meet">

<g transform="translate(0.000000,120.000000) scale(0.100000,-0.100000)"
fill="#000000" stroke="none">
<path d="M492 1030 c-48 -11 -74 -38 -70 -74 4 -35 -16 -46 -32 -17 -13 25
-45 28 -54 5 -3 -8 -1 -24 5 -36 8 -15 7 -24 -7 -39 -24 -26 -31 -127 -12
-153 15 -19 22 -16 208 103 l25 16 -17 -26 c-116 -180 -248 -403 -248 -419 0
-26 34 -60 60 -60 23 0 25 -8 6 -33 -8 -10 -12 -27 -9 -37 9 -34 40 -23 70 25
l28 45 151 0 150 0 32 -45 c17 -25 39 -45 47 -45 24 0 30 29 11 61 -16 28 -16
29 1 29 32 0 63 29 63 58 0 18 -45 100 -124 227 -68 110 -123 202 -121 204 2
2 44 -22 92 -52 123 -77 120 -77 134 -25 10 37 9 50 -6 88 -10 25 -17 62 -17
83 2 47 -22 61 -49 29 -23 -29 -47 -20 -41 16 5 34 -18 56 -73 71 -45 12 -153
13 -203 1z m201 -56 c9 -3 21 -14 27 -24 8 -16 5 -20 -25 -30 -19 -6 -45 -25
-59 -41 -29 -34 -51 -37 -67 -8 -6 11 -33 31 -60 43 -46 20 -48 23 -36 40 22
31 143 41 220 20z m-13 -358 c0 -8 -72 -126 -80 -131 -6 -4 -80 114 -80 128 0
4 36 7 80 7 44 0 80 -2 80 -4z m-145 -105 c32 -55 62 -98 66 -96 3 3 32 48 64
101 l58 97 33 -54 c67 -108 80 -138 68 -156 -10 -16 -34 -18 -224 -21 -216 -2
-240 1 -240 35 0 15 101 192 110 193 3 0 32 -45 65 -99z"/>
</g>
</svg>
